<?xml version="1.0" encoding="UTF-8"?>
<svg xmlns="http://www.w3.org/2000/svg" viewBox="0 0 1200 630" width="1200" height="630">
  <defs>
    <linearGradient id="bg-gradient" x1="0%" y1="0%" x2="100%" y2="100%">
      <stop offset="0%" stop-color="#0f172a"/>
      <stop offset="100%" stop-color="#1e293b"/>
    </linearGradient>
    <linearGradient id="accent-gradient" x1="0%" y1="0%" x2="100%" y2="0%">
      <stop offset="0%" stop-color="#06b6d4"/>
      <stop offset="100%" stop-color="#0891b2"/>
    </linearGradient>
    <radialGradient id="glow" cx="50%" cy="50%" r="50%">
      <stop offset="0%" stop-color="#06b6d4" stop-opacity="0.15"/>
      <stop offset="100%" stop-color="#06b6d4" stop-opacity="0"/>
    </radialGradient>
  </defs>

  <rect width="1200" height="630" fill="url(#bg-gradient)"/>

  <g opacity="0.04" stroke="#ffffff" stroke-width="1">
    <line x1="0" y1="100" x2="1200" y2="100"/>
    <line x1="0" y1="200" x2="1200" y2="200"/>
    <line x1="0" y1="300" x2="1200" y2="300"/>
    <line x1="0" y1="400" x2="1200" y2="400"/>
    <line x1="0" y1="500" x2="1200" y2="500"/>
    <line x1="200" y1="0" x2="200" y2="630"/>
    <line x1="400" y1="0" x2="400" y2="630"/>
    <line x1="600" y1="0" x2="600" y2="630"/>
    <line x1="800" y1="0" x2="800" y2="630"/>
    <line x1="1000" y1="0" x2="1000" y2="630"/>
  </g>

  <circle cx="950" cy="180" r="250" fill="url(#glow)"/>

  <g transform="translate(80, 100)">
    <rect x="0" y="0" width="280" height="38" rx="19"
          fill="rgba(6, 182, 212, 0.15)"
          stroke="rgba(6, 182, 212, 0.4)"
          stroke-width="1"/>
    <text x="20" y="25"
          font-family="system-ui, -apple-system, sans-serif"
          font-size="13"
          font-weight="700"
          fill="#06b6d4"
          letter-spacing="2px">VERTICALA · RESTAURANTE</text>
  </g>

  <text x="80" y="240"
        font-family="system-ui, -apple-system, 'Plus Jakarta Sans', sans-serif"
        font-size="68"
        font-weight="800"
        fill="#ffffff"
        letter-spacing="-1px">Concierge AI</text>

  <text x="80" y="320"
        font-family="system-ui, -apple-system, 'Plus Jakarta Sans', sans-serif"
        font-size="42"
        font-weight="500"
        fill="rgba(255, 255, 255, 0.85)">pentru restaurante și cafenele</text>

  <text x="80" y="400"
        font-family="system-ui, -apple-system, sans-serif"
        font-size="22"
        font-weight="400"
        fill="rgba(255, 255, 255, 0.6)">Rezervări 24/7, întrebări meniu, alergeni</text>

  <text x="80" y="432"
        font-family="system-ui, -apple-system, sans-serif"
        font-size="22"
        font-weight="400"
        fill="rgba(255, 255, 255, 0.6)">și evenimente private — instant, în 50+ limbi</text>

  <rect x="80" y="475" width="80" height="4" fill="url(#accent-gradient)" rx="2"/>

  <g transform="translate(80, 530)">
    <text x="0" y="0"
          font-family="'Pacifico', cursive, system-ui"
          font-size="32"
          font-weight="400"
          fill="#F5A623">my</text>
    <text x="55" y="0"
          font-family="system-ui, -apple-system, 'Plus Jakarta Sans', sans-serif"
          font-size="28"
          font-weight="800"
          fill="#ffffff"
          letter-spacing="2px">CHATBOT</text>
    <text x="245" y="-2"
          font-family="system-ui, -apple-system, sans-serif"
          font-size="13"
          font-weight="400"
          fill="rgba(255, 255, 255, 0.5)"
          letter-spacing="0.5px">by Hello Web</text>
  </g>

  <g transform="translate(870, 320)" opacity="0.9">
    <g transform="translate(0, 0)">
      <polygon points="50,0 0,90 100,90"
               fill="rgba(6, 182, 212, 0.18)"
               stroke="rgba(6, 182, 212, 0.5)"
               stroke-width="2"/>
      <line x1="0" y1="90" x2="100" y2="90"
            stroke="rgba(6, 182, 212, 0.6)"
            stroke-width="3"/>
      <circle cx="35" cy="55" r="6" fill="rgba(255,255,255,0.4)"/>
      <circle cx="60" cy="40" r="5" fill="rgba(255,255,255,0.4)"/>
      <circle cx="50" cy="75" r="6" fill="rgba(255,255,255,0.4)"/>
      <circle cx="70" cy="70" r="4" fill="rgba(255,255,255,0.4)"/>
    </g>

    <g transform="translate(140, 5)">
      <path d="M 5,30 Q 5,5 50,5 Q 95,5 95,30 Z"
            fill="rgba(6, 182, 212, 0.18)"
            stroke="rgba(6, 182, 212, 0.5)"
            stroke-width="2"/>
      <path d="M 5,38 Q 15,32 25,38 T 45,38 T 65,38 T 85,38 L 95,38 L 95,42 Q 85,38 75,42 T 55,42 T 35,42 T 15,42 L 5,42 Z"
            fill="rgba(255,255,255,0.3)"
            stroke="rgba(6, 182, 212, 0.4)"
            stroke-width="1"/>
      <rect x="5" y="48" width="90" height="14" rx="2"
            fill="rgba(6, 182, 212, 0.25)"
            stroke="rgba(6, 182, 212, 0.4)"
            stroke-width="1"/>
      <path d="M 5,68 L 95,68 Q 95,82 50,82 Q 5,82 5,68 Z"
            fill="rgba(6, 182, 212, 0.18)"
            stroke="rgba(6, 182, 212, 0.5)"
            stroke-width="2"/>
      <circle cx="30" cy="20" r="2" fill="rgba(255,255,255,0.5)"/>
      <circle cx="50" cy="14" r="2" fill="rgba(255,255,255,0.5)"/>
      <circle cx="70" cy="20" r="2" fill="rgba(255,255,255,0.5)"/>
    </g>

    <g transform="translate(70, 130)">
      <path d="M 10,10 L 90,10 L 80,75 Q 78,82 70,82 L 30,82 Q 22,82 20,75 Z"
            fill="rgba(6, 182, 212, 0.18)"
            stroke="rgba(6, 182, 212, 0.5)"
            stroke-width="2"/>
      <ellipse cx="50" cy="14" rx="38" ry="6"
               fill="rgba(255, 255, 255, 0.2)"
               stroke="rgba(6, 182, 212, 0.4)"
               stroke-width="1"/>
      <path d="M 90,25 Q 110,25 110,45 Q 110,65 90,65"
            fill="none"
            stroke="rgba(6, 182, 212, 0.5)"
            stroke-width="2"/>
      <path d="M 30,0 Q 28,-5 32,-10 T 30,-20"
            fill="none"
            stroke="rgba(6, 182, 212, 0.4)"
            stroke-width="2"
            stroke-linecap="round"/>
      <path d="M 50,0 Q 48,-5 52,-10 T 50,-22"
            fill="none"
            stroke="rgba(6, 182, 212, 0.5)"
            stroke-width="2"
            stroke-linecap="round"/>
      <path d="M 70,0 Q 68,-5 72,-10 T 70,-20"
            fill="none"
            stroke="rgba(6, 182, 212, 0.4)"
            stroke-width="2"
            stroke-linecap="round"/>
    </g>
  </g>
</svg>
